<svg id="visual" viewBox="0 0 960 540" width="960" height="540" xmlns="http://www.w3.org/2000/svg" xmlns:xlink="http://www.w3.org/1999/xlink" version="1.1"><rect x="0" y="0" width="960" height="540" fill="#99AD9F"></rect><defs><linearGradient id="grad1_0" x1="43.8%" y1="0%" x2="100%" y2="100%"><stop offset="14.444444444444446%" stop-color="#99ad9f" stop-opacity="1"></stop><stop offset="85.55555555555554%" stop-color="#99ad9f" stop-opacity="1"></stop></linearGradient></defs><defs><linearGradient id="grad2_0" x1="0%" y1="0%" x2="56.3%" y2="100%"><stop offset="14.444444444444446%" stop-color="#99ad9f" stop-opacity="1"></stop><stop offset="85.55555555555554%" stop-color="#99ad9f" stop-opacity="1"></stop></linearGradient></defs><g transform="translate(960, 0)"><path d="M0 372C-54.4 381.8 -108.7 391.5 -155 374.2C-201.2 356.8 -239.3 312.3 -269.4 269.4C-299.5 226.5 -321.5 185.1 -339.1 140.4C-356.7 95.8 -369.8 47.9 -383 0L0 0Z" fill="#bac8bd"></path></g><g transform="translate(0, 540)"><path d="M0 -349C45.7 -350.8 91.4 -352.5 143.1 -345.5C194.8 -338.5 252.6 -322.7 286.4 -286.4C320.2 -250 330.1 -193.1 342.8 -142C355.4 -90.8 370.7 -45.4 386 0L0 0Z" fill="#bac8bd"></path></g></svg>